<svg width="43" height="40" viewBox="0 0 43 40" fill="none" xmlns="http://www.w3.org/2000/svg">
<path d="M3.30396 17.1323C3.71066 15.3021 5.33391 14 7.20871 14H12L8.00002 32H4.98649C2.4275 32 0.526616 29.6303 1.08174 27.1323L3.30396 17.1323Z" fill="#FFC228"></path>
<path d="M39.2852 8H21.2861L20.6777 10.8384C20.2824 12.6825 18.6526 14 16.7666 14H12L14.3216 3.16214C14.7167 1.31774 16.3467 0 18.2329 0H36.0513C38.5978 0 40.496 2.34793 39.9626 4.83792L39.2852 8Z" fill="#FB315D"></path>
<path d="M30.9627 36.8379C30.5676 38.6823 28.9377 40 27.0514 40H11.233C8.68648 40 6.78828 37.6521 7.32172 35.1621L7.99914 32H31.9991L30.9627 36.8379Z" fill="#07E0B0"></path>
<path d="M38.6269 17C41.2292 17 43.1386 19.4456 42.5075 21.9701L40.7575 28.9701C40.3123 30.7508 38.7124 32 36.8769 32H32L33.75 25H14L15.0364 20.1621C15.4316 18.3177 17.0615 17 18.9477 17H38.6269Z" fill="#6F3BFD"></path>
</svg>